<svg width="50" height="50" viewBox="0 0 50 50" fill="none" xmlns="http://www.w3.org/2000/svg">
<path d="M35.973 16.8243C37.2604 16.8243 38.3041 15.7807 38.3041 14.4933C38.3041 13.2058 37.2604 12.1622 35.973 12.1622C34.6856 12.1622 33.6419 13.2058 33.6419 14.4933C33.6419 15.7807 34.6856 16.8243 35.973 16.8243Z" fill="#DE5833"/>
<path d="M23.8513 38.7365C32.3483 38.7365 39.2365 31.8483 39.2365 23.3514C39.2365 14.8544 32.3483 7.96622 23.8513 7.96622C15.3544 7.96622 8.46622 14.8544 8.46622 23.3514C8.46622 31.8483 15.3544 38.7365 23.8513 38.7365Z" fill="#E5E5E5"/>
<path d="M32.2432 10.4372C34.8541 13.1878 36.4392 16.9176 36.4392 21.0203C36.4392 29.5054 29.5392 36.4054 21.0541 36.4054C17.977 36.4054 15.0865 35.473 12.6622 33.9345C15.4595 36.9182 19.4223 38.7365 23.8514 38.7365C32.3365 38.7365 39.2365 31.8365 39.2365 23.3514C39.2365 17.9432 36.4392 13.1878 32.2432 10.4372Z" fill="#C0C0C0"/>
<path d="M24.3642 33.6547L22.8723 32.1628C21.9865 31.277 20.8209 30.8108 19.5622 30.8108H15.9723C14.7135 30.8108 13.548 30.298 12.6622 29.4588L10.8439 27.6405C10.4709 27.2676 10.2845 26.8014 10.2845 26.3351V26.1487C10.2845 25.123 11.1236 24.2838 12.1493 24.2838H18.6764C20.7277 24.2838 22.4061 22.6054 22.4061 20.5541V18.7358C22.4061 17.477 22.9189 16.3115 23.7581 15.4257L24.7372 14.4466C25.623 13.5608 26.0892 12.3953 26.0892 11.1365V8.10609C25.3432 8.01284 24.5507 7.9196 23.7581 7.9196C15.273 7.9196 8.37297 14.8196 8.37297 23.3047C8.37297 31.7899 15.273 38.6899 23.7581 38.6899C24.2243 38.6899 24.6905 38.6433 25.1568 38.6433V35.7527C25.25 35.0068 24.9237 34.2142 24.3642 33.6547Z" fill="#C0C0C0"/>
<path d="M28.9797 8.85204V13.0946C28.9797 15.146 30.6581 16.8243 32.7095 16.8243H37.7912C36.0662 13.1412 32.8493 10.2041 28.9797 8.85204Z" fill="#C0C0C0"/>
<path d="M32.2432 10.4372C33.9216 12.2088 35.1804 14.4 35.8797 16.8243H37.7912C36.5791 14.2135 34.6209 12.0223 32.2432 10.4372Z" fill="#A6A6A6"/>
<path d="M21.0541 36.4054C17.977 36.4054 15.0865 35.473 12.6622 33.9345C15.4595 36.9183 19.4223 38.7365 23.8514 38.7365C24.3176 38.7365 24.7838 38.6899 25.25 38.6899V35.846C23.898 36.2189 22.4993 36.4054 21.0541 36.4054Z" fill="#A6A6A6"/>
<path d="M16.3919 18.223C17.6793 18.223 18.723 17.1793 18.723 15.8919C18.723 14.6045 17.6793 13.5608 16.3919 13.5608C15.1045 13.5608 14.0608 14.6045 14.0608 15.8919C14.0608 17.1793 15.1045 18.223 16.3919 18.223Z" fill="#DE5833"/>
<path d="M20.5878 33.1419C21.8753 33.1419 22.9189 32.0982 22.9189 30.8108C22.9189 29.5234 21.8753 28.4797 20.5878 28.4797C19.3004 28.4797 18.2568 29.5234 18.2568 30.8108C18.2568 32.0982 19.3004 33.1419 20.5878 33.1419Z" fill="#DE5833"/>
<path d="M41.5676 41.2074C40.3554 42.0466 38.9101 42.4662 37.4182 42.4662H33.5486C32.0568 42.4662 30.6581 42.0466 29.3993 41.2074C28.8399 40.8345 28.4669 40.1818 28.4669 39.4824V35.9392C28.4669 32.8622 30.9845 30.3446 34.0615 30.3446H36.8588C39.9358 30.3446 42.4534 32.8622 42.4534 35.9392V39.4824C42.5 40.1818 42.1736 40.8345 41.5676 41.2074Z" fill="#DE5833"/>
<path d="M30.8446 24.75C30.8446 27.0811 32.7095 28.946 35.0405 28.946H35.973C38.3041 28.946 40.1689 27.0811 40.1689 24.75V24.2838C40.1689 21.9527 38.3041 20.0878 35.973 20.0878H35.0405C32.7095 20.0878 30.8446 21.9527 30.8446 24.2838V24.75Z" fill="#9C452D"/>
<path d="M35.973 32.6757H35.0405C34.0149 32.6757 33.1757 31.8365 33.1757 30.8108V28.0135H37.8378V30.8108C37.8378 31.8365 36.9986 32.6757 35.973 32.6757Z" fill="#E87252"/>
<path d="M33.1757 25.6824L31.4973 27.9203C30.7513 28.8993 30.3784 30.0649 30.3784 31.277C30.3784 32.4892 30.7513 33.6547 31.4973 34.6338L33.1757 36.8716V25.6824Z" fill="#9C452D"/>
<path d="M35.5068 30.8108C33.6885 30.8108 32.2432 29.3656 32.2432 27.5473V24.75C32.2432 23.7243 33.0824 22.8851 34.1081 22.8851H36.9054C37.9311 22.8851 38.7703 23.7243 38.7703 24.75V27.5473C38.7703 29.3656 37.325 30.8108 35.5068 30.8108Z" fill="#E69C88"/>
<path d="M39.0034 25.2162C37.9311 25.2162 36.952 24.8899 36.2061 24.377C35.3669 24.8899 34.2946 25.2162 33.1757 25.2162H31.777C31.2642 25.2162 30.8446 24.7966 30.8446 24.2838C30.8446 22.2324 32.523 20.5541 34.5743 20.5541H36.4392C38.4905 20.5541 40.1689 22.2324 40.1689 24.2838C40.1689 24.7966 39.7493 25.2162 39.2365 25.2162H39.0034Z" fill="#9C452D"/>
</svg>
